<svg width="69" height="117" viewBox="0 0 69 117" xmlns="http://www.w3.org/2000/svg"><path d="M58.862 49.656a4.535 4.535 0 0 0-3.436-4.407V34.897c0-11.267-9.087-19.01-20.3-19.01-11.208 0-20.298 7.743-20.298 19.01v10.35a4.533 4.533 0 0 0-3.435 4.408c0 2.19 1.54 4.016 3.592 4.445a20.412 20.412 0 0 0 12.032 16.206V81.17c-.14.613 3.587 8.015 8.28 8.015 4.695 0 8.373-6.477 8.145-7.25V70.212a20.412 20.412 0 0 0 11.827-16.11 4.537 4.537 0 0 0 3.592-4.446" fill="#F3C8AA"/><path d="M35.126 63.938a4.512 4.512 0 0 1-3.21-1.333 1.17 1.17 0 0 1 0-1.65 1.16 1.16 0 0 1 1.64 0c.87.875 2.277.872 3.143 0a1.157 1.157 0 0 1 1.638 0 1.166 1.166 0 0 1 0 1.65 4.516 4.516 0 0 1-3.212 1.333m10.783-16.133A1.29 1.29 0 0 1 44.62 49.1a1.29 1.29 0 0 1-1.286-1.295 1.29 1.29 0 0 1 1.287-1.294c.712 0 1.288.58 1.288 1.295m-18.551-.001A1.29 1.29 0 0 1 26.07 49.1a1.29 1.29 0 0 1-1.287-1.295 1.29 1.29 0 0 1 1.288-1.294c.712 0 1.288.58 1.288 1.295M49.63 44.44c-.7 0-1.113-.43-1.357-.78-.244.35-.657.78-1.357.78-.697 0-1.11-.427-1.353-.777-.244.35-.655.776-1.352.776-.696 0-1.107-.426-1.35-.776-.246.35-.657.775-1.354.775-.898 0-1.32-.71-1.524-1.048l-.064-.11a.995.995 0 0 1-.752-.968c0-.55.442-.997.99-.997.697 0 1.107.425 1.35.775.245-.35.656-.775 1.352-.775.696 0 1.108.426 1.352.775.245-.35.655-.775 1.352-.775.7 0 1.11.43 1.355.78.245-.35.657-.78 1.356-.78.9 0 1.323.707 1.527 1.047l.065.112c.434.106.756.5.756.967 0 .55-.442.996-.99.996m-19.225.003c-.7 0-1.112-.43-1.356-.78-.243.35-.656.78-1.356.78-.697 0-1.11-.427-1.353-.776-.244.35-.655.775-1.35.775-.7 0-1.11-.426-1.354-.776-.245.35-.656.775-1.353.775-.898 0-1.32-.71-1.524-1.048l-.065-.11a.996.996 0 0 1-.753-.968c0-.55.444-.997.99-.997.697 0 1.108.425 1.35.775.246-.35.657-.775 1.353-.775.697 0 1.108.426 1.353.776.244-.35.655-.776 1.35-.776.7 0 1.112.43 1.357.78.244-.35.656-.78 1.356-.78.9 0 1.324.707 1.527 1.046l.066.113a.996.996 0 0 1-.237 1.963" fill="#190B12"/><path d="M49.695 21.028a17.183 17.183 0 0 0 1.23-6.39H33.25c-8.876.572-16.26 6.62-18.816 14.83-.073.15-.107.305-.15.456l-.047.174a20.89 20.89 0 0 0-.372 1.578l-.027.114a21.652 21.652 0 0 0-.385 3.986v9.642l2.834 4.488V31.79h18.34c.857 0 1.685-.117 2.483-.315 4.494-.872 8.36-3.514 10.85-7.177 1.554.96 4.325 4.637 4.722 18.525v7.318l2.833-4.487v-8.465c.085-.832.042-1.726-.085-2.63 0-.007-.003-9.87-5.735-13.53z" fill="#190B12"/><path d="M65.28 33.064c-.48-19.082-14.757-31.3-30.55-31.3-17.36 0-30.134 13.97-30.56 31.3h2.786C7.382 17.086 18.896 4.2 34.73 4.2c15.815 0 27.344 12.886 27.77 28.864h2.78" fill="#DC1928"/><path fill="#190B12" d="M6.366 59.84h2.49v4.477h-2.49z"/><path fill="#DC1928" d="M62.5 33.064v3.27l2.78 2.44v-5.71H62.5m-55.544 0v3.27l-2.78 2.44v-5.71h2.78m45.339 29.194c0 .766.624 1.393 1.385 1.393h1.75c.76 0 1.385-.626 1.385-1.392V35.55c0-.765-.624-1.392-1.385-1.392h-1.75c-.76 0-1.385.627-1.385 1.392v26.708"/><path d="M65.765 40.232v16.1c1.31-.52 2.5-1.34 2.5-2.282V42.507c0-.928-1.19-1.747-2.5-2.275" fill="#190B12"/><path d="M12.183 62.258c0 .766.624 1.393 1.386 1.393h1.748c.762 0 1.385-.626 1.385-1.392V35.55c0-.765-.623-1.392-1.385-1.392h-1.75c-.76 0-1.385.627-1.385 1.392v26.708" fill="#DC1928"/><path d="M.805 42.507v11.55c0 .936 1.19 1.754 2.5 2.276v-16.1c-1.31.527-2.5 1.346-2.5 2.274" fill="#190B12"/><path d="M60.33 35.643h-3.515v26.594h3.514c3.155 0 5.707-2.01 5.707-4.486V40.13c0-2.477-2.552-4.487-5.708-4.487M3.035 40.115v17.572c0 2.468 2.544 4.48 5.695 4.48h3.498V35.642H8.73c-3.15 0-5.695 2.003-5.695 4.472" fill="#685B56"/><path fill="#190B12" d="M56.815 35.643h1.213v26.594h-1.213zm-45.845 0h1.213v26.594H10.97z"/><path d="M63.695 18.954l-.487-.986c-2.752-5.57-6.982-10.155-12.253-13.288v-.008l-1.393-.797-.02.02A31.848 31.848 0 0 0 34.73.233c-5.32 0-10.308 1.223-14.844 3.637l-.01-.01-.413.24-.967.543v.025c-5.198 3.12-9.41 7.73-12.194 13.354l-.488.987-.8 1.596 5.194 2.824.905-2.03c2.06-4.625 5.232-8.495 9.19-11.23l.546-.354c4.16-2.71 8.83-4.084 13.88-4.084 5.045 0 9.713 1.376 13.872 4.085l.493.32c3.986 2.735 7.174 6.617 9.244 11.262l.903 2.03 5.247-2.824-.795-1.652" fill="#685B56"/><path fill="#DC1928" d="M6.97 64.317h1.28v18.188H6.97z"/><path d="M43.798 69.175c0 1.562-1.26 2.83-2.815 2.83h-4.87a2.822 2.822 0 0 1-2.815-2.83c0-1.563 1.26-2.83 2.816-2.83h4.87a2.822 2.822 0 0 1 2.814 2.83" fill="#685B56"/><path d="M58.038 71h-18.44v-3.65h18.44c.984 0 1.785-.805 1.785-1.795V58.36h3.63v7.195c0 3.002-2.43 5.444-5.415 5.444" fill="#685B56"/><path d="M68.41 87.515c0-6.874-5.532-6.874-5.532-6.874H14.832l-4.3-.026s-5.535 0-5.535 6.882v16.846H68.41V87.515" fill="#DC1928"/><path d="M8.25 81.498a5.915 5.915 0 0 0-1.28 1.305C5.898 84.28 4.998 86.76 4.998 90.91v25.208H68.41V90.94c0-10.285-5.532-10.285-5.532-10.285H14.832l-4.3-.04s-1.078 0-2.28.883z" fill="#B1131E"/><path d="M28.253 99.554a.44.44 0 0 1-.44.442H17.71a.44.44 0 0 1-.44-.442V89.397a.44.44 0 0 1 .44-.442h10.104a.44.44 0 0 1 .44.442v10.157" fill="#DC1928"/><path d="M19.192 94.475a3.59 3.59 0 0 0 2.305 3.358v-6.715a3.59 3.59 0 0 0-2.305 3.357m3.568-3.587a4.03 4.03 0 0 0-.292.01v.253h.018c1.36.01 2.455 1.053 2.445 2.33-.008 1.27-1.11 2.295-2.462 2.293v2.28a3.579 3.579 0 0 0 3.863-3.578 3.578 3.578 0 0 0-3.57-3.587" fill="#FFF"/><path d="M43.442 80.614c0 4.56-3.677 8.254-8.212 8.254-4.536 0-8.213-3.695-8.213-8.254 0-4.56 3.677-8.255 8.213-8.255 4.535 0 8.212 3.694 8.212 8.254" fill="#F3C8AA"/></svg>